<svg width="50" height="50" viewBox="0 0 50 50" fill="none" xmlns="http://www.w3.org/2000/svg">
<path d="M41.5625 43.75C37.0833 43.75 32.7174 42.7514 28.4646 40.7542C24.2118 38.7569 20.4444 36.1181 17.1625 32.8375C13.8806 29.5569 11.2417 25.7896 9.24583 21.5354C7.25 17.2812 6.25139 12.9153 6.25 8.4375C6.25 7.8125 6.45833 7.29167 6.875 6.875C7.29167 6.45833 7.8125 6.25 8.4375 6.25H16.875C17.3611 6.25 17.7951 6.40625 18.1771 6.71875C18.559 7.03125 18.7847 7.43056 18.8542 7.91667L20.2083 15.2083C20.2778 15.6944 20.2688 16.1375 20.1812 16.5375C20.0938 16.9375 19.8944 17.2931 19.5833 17.6042L14.5833 22.7083C16.0417 25.2083 17.8646 27.5521 20.0521 29.7396C22.2396 31.9271 24.6528 33.8194 27.2917 35.4167L32.1875 30.5208C32.5 30.2083 32.9083 29.9743 33.4125 29.8187C33.9167 29.6632 34.4111 29.6194 34.8958 29.6875L42.0833 31.1458C42.5694 31.25 42.9687 31.4847 43.2812 31.85C43.5937 32.2153 43.75 32.6403 43.75 33.125V41.5625C43.75 42.1875 43.5417 42.7083 43.125 43.125C42.7083 43.5417 42.1875 43.75 41.5625 43.75Z" fill="white"/>
</svg>
