<svg width="50" height="50" viewBox="0 0 50 50" fill="none" xmlns="http://www.w3.org/2000/svg">
<path d="M39.5833 8.3335H10.4166C8.75902 8.3335 7.16931 8.99198 5.99721 10.1641C4.82511 11.3362 4.16663 12.9259 4.16663 14.5835V35.4168C4.16663 37.0744 4.82511 38.6641 5.99721 39.8362C7.16931 41.0084 8.75902 41.6668 10.4166 41.6668H39.5833C41.2409 41.6668 42.8306 41.0084 44.0027 39.8362C45.1748 38.6641 45.8333 37.0744 45.8333 35.4168V14.5835C45.8333 12.9259 45.1748 11.3362 44.0027 10.1641C42.8306 8.99198 41.2409 8.3335 39.5833 8.3335ZM38.1875 12.5002L25 22.396L11.8125 12.5002H38.1875ZM39.5833 37.5002H10.4166C9.86409 37.5002 9.33419 37.2807 8.94349 36.89C8.55279 36.4993 8.33329 35.9694 8.33329 35.4168V15.1043L23.75 26.6668C24.1106 26.9373 24.5492 27.0835 25 27.0835C25.4507 27.0835 25.8893 26.9373 26.25 26.6668L41.6666 15.1043V35.4168C41.6666 35.9694 41.4471 36.4993 41.0564 36.89C40.6657 37.2807 40.1358 37.5002 39.5833 37.5002Z" fill="white"/>
</svg>
