<svg width="32" height="35" viewBox="0 0 32 35" fill="none" xmlns="http://www.w3.org/2000/svg">
<g clip-path="url(#clip0_406_167)" filter="url(#filter0_d_406_167)">
<path fill-rule="evenodd" clip-rule="evenodd" d="M21 3.75C22.6576 3.75 24.2473 4.40848 25.4194 5.58058C26.5915 6.75269 27.25 8.3424 27.25 10V20C27.25 21.6576 26.5915 23.2473 25.4194 24.4194C24.2473 25.5915 22.6576 26.25 21 26.25H11C9.3424 26.25 7.75269 25.5915 6.58058 24.4194C5.40848 23.2473 4.75 21.6576 4.75 20V10C4.75 8.3424 5.40848 6.75269 6.58058 5.58058C7.75269 4.40848 9.3424 3.75 11 3.75H21ZM21 6.25H11C10.0054 6.25 9.05161 6.64509 8.34835 7.34835C7.64509 8.05161 7.25 9.00544 7.25 10V20C7.25 20.9946 7.64509 21.9484 8.34835 22.6517C9.05161 23.3549 10.0054 23.75 11 23.75H21C21.9946 23.75 22.9484 23.3549 23.6517 22.6517C24.3549 21.9484 24.75 20.9946 24.75 20V10C24.75 9.00544 24.3549 8.05161 23.6517 7.34835C22.9484 6.64509 21.9946 6.25 21 6.25ZM16 10C17.3261 10 18.5979 10.5268 19.5355 11.4645C20.4732 12.4021 21 13.6739 21 15C21 16.3261 20.4732 17.5979 19.5355 18.5355C18.5979 19.4732 17.3261 20 16 20C14.6739 20 13.4021 19.4732 12.4645 18.5355C11.5268 17.5979 11 16.3261 11 15C11 13.6739 11.5268 12.4021 12.4645 11.4645C13.4021 10.5268 14.6739 10 16 10ZM16 12.5C15.337 12.5 14.7011 12.7634 14.2322 13.2322C13.7634 13.7011 13.5 14.337 13.5 15C13.5 15.663 13.7634 16.2989 14.2322 16.7678C14.7011 17.2366 15.337 17.5 16 17.5C16.663 17.5 17.2989 17.2366 17.7678 16.7678C18.2366 16.2989 18.5 15.663 18.5 15C18.5 14.337 18.2366 13.7011 17.7678 13.2322C17.2989 12.7634 16.663 12.5 16 12.5ZM21.625 8.125C21.9565 8.125 22.2745 8.2567 22.5089 8.49112C22.7433 8.72554 22.875 9.04348 22.875 9.375C22.875 9.70652 22.7433 10.0245 22.5089 10.2589C22.2745 10.4933 21.9565 10.625 21.625 10.625C21.2935 10.625 20.9755 10.4933 20.7411 10.2589C20.5067 10.0245 20.375 9.70652 20.375 9.375C20.375 9.04348 20.5067 8.72554 20.7411 8.49112C20.9755 8.2567 21.2935 8.125 21.625 8.125Z" fill="#EDFDFE"/>
</g>
<defs>
<filter id="filter0_d_406_167" x="-3" y="0" width="38" height="38" filterUnits="userSpaceOnUse" color-interpolation-filters="sRGB">
<feFlood flood-opacity="0" result="BackgroundImageFix"/>
<feColorMatrix in="SourceAlpha" type="matrix" values="0 0 0 0 0 0 0 0 0 0 0 0 0 0 0 0 0 0 127 0" result="hardAlpha"/>
<feOffset dy="4"/>
<feGaussianBlur stdDeviation="2"/>
<feComposite in2="hardAlpha" operator="out"/>
<feColorMatrix type="matrix" values="0 0 0 0 0 0 0 0 0 0 0 0 0 0 0 0 0 0 0.25 0"/>
<feBlend mode="normal" in2="BackgroundImageFix" result="effect1_dropShadow_406_167"/>
<feBlend mode="normal" in="SourceGraphic" in2="effect1_dropShadow_406_167" result="shape"/>
</filter>
<clipPath id="clip0_406_167">
<rect width="30" height="30" fill="white" transform="translate(1)"/>
</clipPath>
</defs>
</svg>
