<svg width="50" height="50" viewBox="0 0 50 50" fill="none" xmlns="http://www.w3.org/2000/svg">
<path d="M24.9999 24.9998C26.1458 24.9998 27.127 24.5915 27.9437 23.7748C28.7603 22.9582 29.168 21.9776 29.1666 20.8332C29.1666 19.6873 28.7583 18.7061 27.9416 17.8894C27.1249 17.0728 26.1444 16.6651 24.9999 16.6665C23.8541 16.6665 22.8728 17.0748 22.0562 17.8915C21.2395 18.7082 20.8319 19.6887 20.8333 20.8332C20.8333 21.979 21.2416 22.9603 22.0583 23.7769C22.8749 24.5936 23.8555 25.0012 24.9999 24.9998ZM24.9999 40.3123C29.236 36.4235 32.3784 32.8901 34.427 29.7123C36.4756 26.5346 37.4999 23.7137 37.4999 21.2498C37.4999 17.4651 36.293 14.3665 33.8791 11.954C31.4652 9.5415 28.5055 8.33456 24.9999 8.33317C21.493 8.33317 18.5326 9.54012 16.1187 11.954C13.7048 14.3679 12.4985 17.4665 12.4999 21.2498C12.4999 23.7151 13.5242 26.5366 15.5728 29.7144C17.6214 32.8922 20.7638 36.4248 24.9999 40.3123ZM24.9999 45.0519C24.7221 45.0519 24.4444 44.9998 24.1666 44.8957C23.8888 44.7915 23.6458 44.6526 23.4374 44.479C18.368 39.9998 14.5833 35.8415 12.0833 32.004C9.58325 28.1665 8.33325 24.5818 8.33325 21.2498C8.33325 16.0415 10.0089 11.8922 13.3603 8.80192C16.7117 5.71164 20.5916 4.1665 24.9999 4.1665C29.4096 4.1665 33.2902 5.71164 36.6416 8.80192C39.993 11.8922 41.668 16.0415 41.6666 21.2498C41.6666 24.5832 40.4166 28.1686 37.9166 32.0061C35.4166 35.8436 31.6319 40.0012 26.5624 44.479C26.3541 44.6526 26.111 44.7915 25.8333 44.8957C25.5555 44.9998 25.2777 45.0519 24.9999 45.0519Z" fill="white"/>
</svg>
