<svg width="34" height="32" viewBox="0 0 34 32" fill="none" xmlns="http://www.w3.org/2000/svg">
<g filter="url(#filter0_d_406_173)">
<path d="M14.5 18.75L20.9875 15L14.5 11.25V18.75ZM28.95 8.9625C29.1125 9.55 29.225 10.3375 29.3 11.3375C29.3875 12.3375 29.425 13.2 29.425 13.95L29.5 15C29.5 17.7375 29.3 19.75 28.95 21.0375C28.6375 22.1625 27.9125 22.8875 26.7875 23.2C26.2 23.3625 25.125 23.475 23.475 23.55C21.85 23.6375 20.3625 23.675 18.9875 23.675L17 23.75C11.7625 23.75 8.5 23.55 7.2125 23.2C6.0875 22.8875 5.3625 22.1625 5.05 21.0375C4.8875 20.45 4.775 19.6625 4.7 18.6625C4.6125 17.6625 4.575 16.8 4.575 16.05L4.5 15C4.5 12.2625 4.7 10.25 5.05 8.9625C5.3625 7.8375 6.0875 7.1125 7.2125 6.8C7.8 6.6375 8.875 6.525 10.525 6.45C12.15 6.3625 13.6375 6.325 15.0125 6.325L17 6.25C22.2375 6.25 25.5 6.45 26.7875 6.8C27.9125 7.1125 28.6375 7.8375 28.95 8.9625Z" fill="#EDFDFE"/>
</g>
<defs>
<filter id="filter0_d_406_173" x="-2" y="0" width="38" height="38" filterUnits="userSpaceOnUse" color-interpolation-filters="sRGB">
<feFlood flood-opacity="0" result="BackgroundImageFix"/>
<feColorMatrix in="SourceAlpha" type="matrix" values="0 0 0 0 0 0 0 0 0 0 0 0 0 0 0 0 0 0 127 0" result="hardAlpha"/>
<feOffset dy="4"/>
<feGaussianBlur stdDeviation="2"/>
<feComposite in2="hardAlpha" operator="out"/>
<feColorMatrix type="matrix" values="0 0 0 0 0 0 0 0 0 0 0 0 0 0 0 0 0 0 0.25 0"/>
<feBlend mode="normal" in2="BackgroundImageFix" result="effect1_dropShadow_406_173"/>
<feBlend mode="normal" in="SourceGraphic" in2="effect1_dropShadow_406_173" result="shape"/>
</filter>
</defs>
</svg>
